<svg width="40" height="40" viewBox="0 0 40 40" fill="none" xmlns="http://www.w3.org/2000/svg">
<path fill-rule="evenodd" clip-rule="evenodd" d="M19.5153 39.0305C30.2933 39.0305 39.0305 30.2933 39.0305 19.5153C39.0305 15.9653 38.0826 12.6366 36.4261 9.76869L33.4213 14.1314C34.0682 15.8014 34.4231 17.6168 34.4231 19.5152C34.4231 27.7487 27.7485 34.4233 19.515 34.4233C11.2815 34.4233 4.60687 27.7487 4.60687 19.5152C4.60687 11.2817 11.2815 4.60712 19.515 4.60712C23.4497 4.60712 27.0283 6.13144 29.6927 8.62176L32.7951 5.21504C29.3119 1.97896 24.6447 0 19.5153 0C8.73728 0 0 8.73728 0 19.5153C0 30.2933 8.73728 39.0305 19.5153 39.0305ZM7.51173 20.2113L17.6335 30.5838C18.5869 31.5609 20.1945 31.4272 20.9735 30.3061L39.7581 3.27186C40.1926 2.64646 40.0248 1.78569 39.3872 1.36929C38.8311 1.00613 38.0936 1.10089 37.6474 1.59283L20.4771 20.5222C19.6289 21.4573 18.1651 21.4753 17.2942 20.5614L12.9738 16.0276C12.3151 15.3365 11.2826 15.1561 10.4286 15.5831L8.09521 16.7498C6.77846 17.4082 6.48356 19.1577 7.51173 20.2113Z" fill="#003D7C"/>
</svg>
