<svg width="560" height="410" viewBox="0 0 560 410" fill="none" xmlns="http://www.w3.org/2000/svg">
<path d="M142.816 197.38C157.168 197.38 162.872 186.708 162.872 177.14C162.872 171.436 160.94 163.064 154.132 161.868V160.58C160.296 159.108 161.952 151.196 161.952 146.412C161.952 136.2 154.408 128.84 142.724 128.84C130.396 128.84 123.772 136.936 122.3 148.068L134.904 151.748C135.824 144.572 138.308 141.076 142.724 141.076C146.312 141.076 148.888 143.468 148.888 149.08C148.888 153.864 147.14 156.716 140.7 156.716V167.756C147.6 167.756 149.716 170.332 149.716 175.668C149.716 181.556 147.876 185.144 143.184 185.144C137.388 185.144 135.824 179.256 135.364 172.356L122.484 176.036C123.68 188.18 129.752 197.38 142.816 197.38ZM202.828 196H216.26L197.768 129.944H184.796L166.488 196H179.736L182.864 183.672H199.608L202.828 196ZM186.268 170.516L191.144 151.288L196.204 170.516H186.268ZM272.625 183.12V129.944H231.133V157.176C231.133 170.24 229.661 176.956 225.521 183.12H219.725V207.04H230.949L232.605 196H266.921L268.577 207.04H279.801V183.12H272.625ZM259.745 183.304H238.953C242.449 177.508 244.013 169.504 244.013 157.176V142.364H259.745V183.304ZM320.117 196H333.549L315.057 129.944H302.085L283.777 196H297.025L300.153 183.672H316.897L320.117 196ZM303.557 170.516L308.433 151.288L313.493 170.516H303.557ZM361.772 129.944V156.624C361.772 161.224 360.944 165.364 354.872 165.364C348.8 165.364 348.064 161.316 348.064 156.624V129.944H335V156.624C335 171.252 343.096 177.6 353.952 177.6C356.62 177.6 359.288 177.048 361.772 176.036V196H374.652V129.944H361.772ZM433.001 196V129.944H423.617L399.329 165.824H398.777V129.944H385.897V196H394.177L419.569 158.832H420.121V196H433.001Z" fill="#003D7C"/>
<path d="M124.48 286H135.68V268.96L140.48 262.16L152.48 286H165.52L148.08 252L164.08 228.56H151.04L136 250.64H135.68V228.56H124.48V286ZM167.556 287.12C183.236 287.12 189.556 282.32 189.636 267.52L189.716 239.52H204.436V286H215.636V228.56H178.356V267.52C178.356 273.6 176.036 275.92 167.556 275.92V287.12ZM266.337 286V228.56H258.177L237.057 259.76H236.577V228.56H225.377V286H232.577L254.657 253.68H255.137V286H266.337ZM276.099 286H309.299V275.2H287.299V262.56H303.939V251.6H287.299V239.44H309.299V228.56H276.099V286ZM317.133 286H328.333V262.48H342.573V286H353.773V228.56H342.573V251.52H328.333V228.56H317.133V286ZM372.678 286H383.878V239.52H395.478V228.56H361.078V239.52H372.678V286ZM425.79 286H437.47L421.39 228.56H410.11L394.19 286H405.71L408.43 275.28H422.99L425.79 286ZM411.39 263.84L415.63 247.12L420.03 263.84H411.39Z" fill="#003D7C"/>
<path d="M548.38 94.6239L0 0L14.651 316.47L560 410L548.38 94.6239ZM541.797 391.386L17.7226 314.395L20.7842 13.9449L547.127 95.1285L541.797 391.386Z" fill="#003D7C"/>
</svg>
