<svg width="560" height="615" viewBox="0 0 560 615" fill="none" xmlns="http://www.w3.org/2000/svg">
<path d="M126.949 225H144.321V188.519H166.408V225H183.78V135.907H166.408V171.519H144.321V135.907H126.949V225ZM242.015 225H260.131L235.19 135.907H217.694L193.001 225H210.869L215.088 208.373H237.672L242.015 225ZM219.679 190.628L226.256 164.695L233.08 190.628H219.679ZM269.148 225H353.153V139.257H335.781V208.124H319.65V139.257H302.278V208.124H286.52V139.257H269.148V225ZM431.831 225V135.907H419.174L386.416 184.3H385.671V135.907H368.299V225H379.467L413.715 174.87H414.459V225H431.831Z" fill="#003D7C"/>
<path d="M124.944 486H159.804V432.963L174.744 411.798L212.094 486H252.681L198.399 380.175L248.199 307.218H207.612L160.8 375.942H159.804V307.218H124.944V486ZM267.983 486H302.843V416.031H324.257C358.121 416.031 377.045 397.854 377.045 362.247C377.045 326.391 358.121 307.218 324.257 307.218H267.983V486ZM302.843 381.669V341.58H323.261C336.707 341.58 341.687 349.299 341.687 361.749C341.687 374.946 335.96 381.669 323.261 381.669H302.843ZM399.836 486H434.696V307.218H399.836V486Z" fill="#003D7C"/>
<path d="M123.319 287.122H131.616V270.468H136.713C144.773 270.468 149.277 266.142 149.277 257.667C149.277 249.132 144.773 244.569 136.713 244.569H123.319V287.122ZM131.616 262.29V252.748H136.476C139.676 252.748 140.862 254.585 140.862 257.548C140.862 260.689 139.499 262.29 136.476 262.29H131.616ZM154.702 287.122H179.298V279.121H162.999V269.757H175.327V261.638H162.999V252.629H179.298V244.569H154.702V287.122ZM196.481 288.011C205.726 288.011 209.401 281.136 209.401 274.973C209.401 271.298 208.156 265.905 203.77 265.134V264.305C207.741 263.356 208.808 258.259 208.808 255.178C208.808 248.599 203.948 243.858 196.421 243.858C188.48 243.858 184.213 249.073 183.264 256.244L191.384 258.615C191.976 253.992 193.577 251.74 196.421 251.74C198.733 251.74 200.392 253.281 200.392 256.896C200.392 259.978 199.266 261.815 195.117 261.815V268.927C199.562 268.927 200.926 270.587 200.926 274.024C200.926 277.817 199.74 280.129 196.718 280.129C192.984 280.129 191.976 276.336 191.68 271.891L183.383 274.261C184.153 282.084 188.065 288.011 196.481 288.011ZM221.763 287.952C228.934 287.952 231.305 283.566 232.608 279.655L244.462 244.569H235.512L229.467 265.075H229.349L222.652 244.569H213.525L225.082 275.565L224.311 277.58C223.659 279.121 223.067 280.366 221.407 280.366C219.748 280.366 219.096 278.528 218.562 276.869L210.68 279.18C212.221 284.87 215.955 287.952 221.763 287.952ZM243.188 287.952C254.804 287.952 259.486 284.396 259.545 273.432L259.605 252.688H270.51V287.122H278.807V244.569H251.189V273.432C251.189 277.936 249.47 279.655 243.188 279.655V287.952ZM286.023 287.122H298.824C306.766 287.122 311.27 282.025 311.27 274.321C311.27 266.201 306.292 261.578 298.824 261.578H294.439V244.569H286.023V287.122ZM294.439 278.825V269.994H298.41C301.551 269.994 302.736 271.831 302.736 274.38C302.736 276.988 301.551 278.825 298.41 278.825H294.439ZM319.648 287.122H327.945V252.688H336.539V244.569H311.055V252.688H319.648V287.122ZM358.995 287.122H367.648L355.735 244.569H347.379L335.585 287.122H344.119L346.134 279.18H356.92L358.995 287.122ZM348.327 270.705L351.468 258.319L354.728 270.705H348.327ZM375.18 287.122H383.477V252.688H392.071V244.569H366.586V252.688H375.18V287.122ZM397.492 287.122H410.293C418.235 287.122 422.739 282.025 422.739 274.321C422.739 266.201 417.761 261.578 410.293 261.578H405.908V244.569H397.492V287.122ZM427.54 287.122H435.837V244.569H427.54V287.122ZM405.908 278.825V269.994H409.878C413.02 269.994 414.205 271.831 414.205 274.38C414.205 276.988 413.02 278.825 409.878 278.825H405.908Z" fill="#003D7C"/>
<path d="M11.6198 94.6239L560 0L545.349 520.575L0 614.105L11.6198 94.6239ZM18.2025 595.491L542.277 518.5L539.216 13.9449L12.8726 95.1285L18.2025 595.491Z" fill="#003D7C"/>
</svg>
