<svg width="560" height="462" viewBox="0 0 560 462" fill="none" xmlns="http://www.w3.org/2000/svg">
<path d="M126.496 219H142.736V194.292L149.696 184.432L167.096 219H186.003L160.716 169.701L183.915 135.713H165.008L143.2 167.729H142.736V135.713H126.496V219ZM233.383 219H250.319L227.003 135.713H210.648L187.564 219H204.268L208.212 203.456H229.323L233.383 219ZM212.504 186.868L218.652 162.625L225.031 186.868H212.504ZM258.748 219H274.988V194.292L281.948 184.432L299.348 219H318.256L292.968 169.701L316.168 135.713H297.26L275.452 167.729H274.988V135.713H258.748V219ZM346.812 220.624C368.272 220.624 373.608 205.196 373.608 177.472C373.608 149.865 368.272 134.321 346.812 134.321C325.236 134.321 319.784 149.865 319.784 177.472C319.784 205.196 325.236 220.624 346.812 220.624ZM346.812 204.732C336.72 204.732 336.256 194.756 336.256 177.472C336.256 160.189 336.72 150.213 346.812 150.213C356.904 150.213 357.136 160.189 357.136 177.472C357.136 194.756 356.904 204.732 346.812 204.732ZM385.676 219H433.816V203.34H401.916V185.012H426.044V169.121H401.916V151.489H433.816V135.713H385.676V219Z" fill="#003D7C"/>
<path d="M124.387 301.82H135.353V279.808H142.09C152.743 279.808 158.696 274.09 158.696 262.889C158.696 251.609 152.743 245.577 142.09 245.577H124.387V301.82ZM135.353 268.999V256.387H141.776C146.006 256.387 147.573 258.815 147.573 262.732C147.573 266.884 145.771 268.999 141.776 268.999H135.353ZM165.866 301.82H198.374V291.245H176.833V278.868H193.126V268.137H176.833V256.23H198.374V245.577H165.866V301.82ZM206.045 301.82H259.076V247.692H248.109V291.167H237.926V247.692H226.96V291.167H217.012V247.692H206.045V301.82ZM268.637 301.82H301.145V291.245H279.604V278.868H295.897V268.137H279.604V256.23H301.145V245.577H268.637V301.82ZM308.816 301.82H319.783V278.79H333.726V301.82H344.693V245.577H333.726V268.059H319.783V245.577H308.816V301.82ZM394.38 301.82V245.577H386.39L365.71 276.127H365.24V245.577H354.274V301.82H361.323L382.943 270.174H383.413V301.82H394.38ZM403.938 301.82H436.446V291.245H414.905V278.868H431.198V268.137H414.905V256.23H436.446V245.577H403.938V301.82Z" fill="#003D7C"/>
<path d="M122.263 349.788H127.92V333.221L128.162 333.181L133.415 341.464L138.547 333.181L138.789 333.221V349.788H144.446V320.776H139.88L133.415 331.565L126.95 320.776H122.263V349.788ZM149.381 349.788H158.109C163.523 349.788 166.594 346.313 166.594 341.06C166.594 335.525 163.2 332.373 158.109 332.373H155.119V320.776H149.381V349.788ZM169.867 349.788H175.524V320.776H169.867V349.788ZM155.119 344.131V338.111H157.826C159.968 338.111 160.776 339.363 160.776 341.101C160.776 342.879 159.968 344.131 157.826 344.131H155.119ZM188.307 349.788H193.964V326.271H200.712V349.788H206.369V320.776H188.307V349.788ZM211.282 349.788H216.939V338.434H220.414C225.909 338.434 228.98 335.484 228.98 329.706C228.98 323.887 225.909 320.776 220.414 320.776H211.282V349.788ZM216.939 332.858V326.352H220.252C222.434 326.352 223.243 327.605 223.243 329.625C223.243 331.767 222.313 332.858 220.252 332.858H216.939ZM232.679 349.788H249.448V344.333H238.336V337.949H246.74V332.413H238.336V326.271H249.448V320.776H232.679V349.788ZM275.224 344.131V320.776H257.001V332.736C257.001 338.474 256.354 341.424 254.536 344.131H251.99V354.637H256.92L257.647 349.788H272.719L273.446 354.637H278.376V344.131H275.224ZM269.567 344.212H260.435C261.971 341.666 262.658 338.151 262.658 332.736V326.231H269.567V344.212ZM280.607 350.354C288.527 350.354 291.719 347.929 291.759 340.454L291.8 326.312H299.235V349.788H304.892V320.776H286.062V340.454C286.062 343.525 284.89 344.697 280.607 344.697V350.354ZM318.499 350.354C325.974 350.354 327.833 344.98 327.833 335.322C327.833 325.706 325.974 320.291 318.499 320.291C310.983 320.291 309.084 325.706 309.084 335.322C309.084 344.98 310.983 350.354 318.499 350.354ZM318.499 344.818C314.983 344.818 314.822 341.343 314.822 335.322C314.822 329.302 314.983 325.827 318.499 325.827C322.014 325.827 322.095 329.302 322.095 335.322C322.095 341.343 322.014 344.818 318.499 344.818ZM359.618 320.816H353.355L348.061 332.817H347.172V320.776H341.515V332.817H340.626L335.333 320.816H329.07L336.182 335.282L329.07 349.788H335.333L340.626 337.747H341.515V349.788H347.172V337.747H348.061L353.355 349.788H359.618L352.506 335.282L359.618 320.816ZM383.237 349.788V320.776H379.115L368.448 336.535H368.205V320.776H362.548V349.788H366.185L377.337 333.464H377.58V349.788H383.237ZM386.713 350.354C394.632 350.354 397.824 347.929 397.865 340.454L397.905 326.312H405.34V349.788H410.997V320.776H392.167V340.454C392.167 343.525 390.996 344.697 386.713 344.697V350.354ZM436.605 349.788V320.776H432.484L421.816 336.535H421.574V320.776H415.917V349.788H419.553L430.706 333.464H430.948V349.788H436.605Z" fill="#003D7C"/>
<path d="M550.412 95.0829L0 0L12.0886 367.678L560 461.858L550.412 95.0829ZM544.981 446.5L14.623 365.966L17.1491 11.506L549.379 95.4993L544.981 446.5Z" fill="#003D7C"/>
</svg>
