<svg width="200" height="149" viewBox="0 0 200 149" fill="none" xmlns="http://www.w3.org/2000/svg">
<mask id="mask0_507_925" style="mask-type:alpha" maskUnits="userSpaceOnUse" x="0" y="0" width="200" height="149">
<rect y="0.5" width="200" height="148" fill="#C4C4C4"/>
</mask>
<g mask="url(#mask0_507_925)">
<path d="M97.44 11.9059C98.4451 11.9059 99.8354 11.9059 101.231 11.9059C110.64 11.9059 120.043 11.8836 129.451 11.9115C136.883 11.9339 139.809 14.8653 139.809 22.1688C139.809 60.6963 139.809 99.2238 139.787 137.746C139.787 139.281 139.792 140.873 139.396 142.33C138.469 145.742 136.202 147.852 132.612 148.321C131.467 148.472 130.3 148.5 129.144 148.5C97.9649 148.5 66.7799 148.494 35.6006 148.483C29.3021 148.483 26.0245 145.306 26.0189 139.041C25.9966 99.8716 25.991 60.7019 26.0189 21.5266C26.0245 14.8597 29.0508 11.9339 35.7848 11.9171C45.707 11.8892 55.6293 11.8892 65.5515 11.9115C67.4332 11.9171 68.8068 11.8054 69.7002 9.53287C72.0621 3.54714 76.7077 0.370063 83.196 0.504072C89.5168 0.638081 93.7827 3.98827 96.2228 9.75064C96.4238 10.2253 96.6025 10.6999 96.8091 11.1689C96.8537 11.2918 96.971 11.3755 97.44 11.9059ZM43.172 131.174C69.9012 131.174 96.2339 131.174 122.611 131.174C122.611 96.9848 122.611 63.142 122.611 28.8804C119.071 28.8804 115.749 28.7799 112.438 28.953C111.628 28.9977 110.645 29.7961 110.121 30.522C108.049 33.392 105.33 34.5479 101.818 34.5255C89.1873 34.4473 76.5514 34.4418 63.9211 34.5143C60.4089 34.5367 57.7008 33.3697 55.6237 30.5109C55.0932 29.785 54.0882 28.9977 53.2674 28.9586C49.973 28.7799 46.6562 28.886 43.172 28.886C43.172 63.2313 43.172 97.0741 43.172 131.174ZM54.211 17.4618C47.5385 17.4618 41.1173 17.4226 34.7016 17.4841C32.7361 17.5064 31.6529 18.7014 31.53 20.678C31.4742 21.577 31.5021 22.4815 31.5021 23.3861C31.5021 61.1542 31.5021 98.9279 31.5021 136.696C31.5021 137.472 31.4686 138.243 31.5132 139.013C31.6752 141.861 32.4402 142.676 35.1985 142.888C36.0975 142.955 37.0021 142.922 37.9066 142.922C67.6845 142.922 97.4624 142.922 127.24 142.922C128.402 142.922 129.569 142.978 130.719 142.888C133.248 142.682 134.08 141.828 134.276 139.253C134.354 138.226 134.298 137.193 134.298 136.16C134.298 98.5203 134.298 60.8806 134.298 23.2353C134.298 22.3307 134.359 21.4262 134.27 20.5328C134.097 18.7628 133.047 17.5287 131.311 17.5008C124.778 17.3947 118.245 17.4562 111.489 17.4562C111.489 19.4775 111.489 21.08 111.489 23.0008C112.912 23.0845 114.158 23.2074 115.403 23.2241C118.111 23.2576 120.819 23.2186 123.521 23.2465C127.81 23.2911 128.301 23.816 128.34 28.2327C128.34 28.4895 128.34 28.7464 128.34 29.0088C128.34 63.0415 128.34 97.0741 128.34 131.101C128.34 132.134 128.368 133.167 128.301 134.195C128.184 136.026 127.145 136.992 125.342 137.126C124.443 137.193 123.538 137.182 122.639 137.182C95.9548 137.182 69.2703 137.176 42.5858 137.176C42.0721 137.176 41.5528 137.204 41.0391 137.171C38.3756 136.986 37.5995 136.277 37.3483 133.709C37.2645 132.815 37.3091 131.905 37.3091 131.001C37.3091 98.001 37.3091 65.0013 37.3091 32.0017C37.3091 30.3266 37.2142 28.6459 37.298 26.9763C37.4375 24.2012 38.3086 23.347 41.1173 23.2465C43.4345 23.1627 45.7573 23.2073 48.0745 23.2018C50.0847 23.1962 52.0892 23.2018 54.211 23.2018C54.211 21.0018 54.211 19.3993 54.211 17.4618ZM60.0851 17.4059C60.0851 20.5662 60.0404 23.2353 60.1018 25.9099C60.1409 27.7693 61.3414 28.6627 63.05 28.9028C63.9378 29.0256 64.848 28.9921 65.7469 28.9921C77.2103 28.9976 88.6792 28.9976 100.143 28.9921C100.913 28.9921 101.689 29.0032 102.46 28.9474C104.403 28.8022 105.637 27.7748 105.721 25.8094C105.832 23.1515 105.749 20.4881 105.749 17.4171C102.437 17.4171 99.6344 17.4282 96.8314 17.4171C92.2974 17.3947 92.2751 17.3891 91.2365 12.9501C90.5051 9.81764 88.6847 7.62886 85.664 6.56237C80.7056 4.81467 75.8646 7.64559 74.4799 13.0283C73.352 17.3947 73.352 17.4003 68.8403 17.4115C66.1434 17.4115 63.4465 17.4059 60.0851 17.4059Z" fill="#003D7C"/>
<path d="M165.405 41.2876C165.405 43.4205 165.405 44.9449 165.405 46.4692C165.405 69.033 165.444 91.5967 165.344 114.166C165.332 116.534 164.757 119.002 163.953 121.246C162.435 125.484 160.553 129.599 158.822 133.765C158.174 135.328 157.577 137.048 155.488 137.02C153.383 136.992 152.875 135.183 152.233 133.659C150.329 129.147 148.352 124.663 146.627 120.079C145.963 118.32 145.628 116.327 145.622 114.445C145.555 89.5587 145.572 64.6721 145.577 39.7856C145.577 36.9267 145.812 34.1851 147.733 31.7618C150.675 28.0542 160.927 27.6969 163.696 32.3146C164.729 34.0344 166.058 35.1399 167.884 36.0389C171.787 37.9485 173.853 41.2932 173.915 45.6652C174.004 52.1088 173.937 58.5579 173.937 65.0071C173.937 65.264 173.926 65.5208 173.915 65.7777C173.842 67.4304 173.027 68.5248 171.34 68.5695C169.453 68.6198 168.51 67.4584 168.487 65.6437C168.437 61.7742 168.454 57.9103 168.448 54.0408C168.443 51.5895 168.454 49.1383 168.443 46.6926C168.437 44.6881 168.018 42.8789 165.405 41.2876ZM151.658 74.7228C151.502 75.2755 151.317 75.6329 151.317 75.9903C151.289 89.1008 151.161 102.211 151.345 115.322C151.401 119.219 153.646 122.542 155.511 126.372C158.565 120.671 160.235 115.517 160.017 109.587C159.643 99.4474 159.911 89.2851 159.911 79.1283C159.911 77.7491 159.911 76.3644 159.911 74.7228C156.996 74.7228 154.478 74.7228 151.658 74.7228ZM159.916 68.5751C159.916 65.2081 159.916 62.1539 159.916 59.0996C159.916 52.293 159.961 45.4865 159.888 38.68C159.855 35.5196 158.783 34.5592 155.689 34.4922C152.401 34.4196 151.323 35.3744 151.301 38.7917C151.239 48.0383 151.261 57.2849 151.273 66.5315C151.273 67.1457 151.435 67.7543 151.546 68.5751C154.232 68.5751 156.745 68.5751 159.916 68.5751Z" fill="#003D7C"/>
<path d="M101.444 51.567C97.7976 51.567 95.1063 51.5726 92.4094 51.567C90.6059 51.5614 88.9922 51.2264 88.7856 49.0097C88.6181 47.1782 89.8297 46.1452 92.4485 46.1061C97.4682 46.0335 102.494 46.0224 107.513 46.1005C110.473 46.1452 111.182 46.8432 111.232 49.7803C111.316 54.8 111.299 59.8253 111.238 64.8451C111.204 67.5364 110.249 68.748 108.435 68.5749C106.028 68.346 105.738 66.6095 105.766 64.6497C105.805 62.0141 105.777 59.373 105.777 56.8436C105.146 56.7375 104.967 56.6537 104.911 56.7096C96.6084 64.5826 88.0876 72.2602 81.6217 81.8251C75.3344 91.1275 72.1462 101.452 71.6213 112.63C71.5543 114.043 71.5152 115.461 71.4203 116.874C71.303 118.633 70.471 119.895 68.5893 119.872C66.702 119.844 65.9036 118.51 65.8198 116.785C65.7584 115.506 65.8645 114.216 65.9203 112.932C66.702 93.7575 74.9715 78.0896 88.417 64.8395C91.9906 61.3162 95.5809 57.804 99.1433 54.2695C99.7464 53.6665 100.254 52.9685 101.444 51.567Z" fill="#003D7C"/>
<path d="M59.9511 68.6644C53.7364 68.6086 48.6441 63.4995 48.672 57.363C48.6999 51.1931 53.7978 46.1174 59.9958 46.0895C66.3556 46.056 71.5931 51.3214 71.4535 57.6087C71.3195 63.8066 66.2048 68.7203 59.9511 68.6644ZM65.7135 57.5696C65.8084 54.5209 63.3683 51.824 60.3475 51.6342C57.4273 51.4499 54.5907 54.0128 54.3953 57.0057C54.1887 60.1772 56.8075 63.0361 59.9902 63.1143C63.0054 63.1869 65.6185 60.6574 65.7135 57.5696Z" fill="#003D7C"/>
<path d="M96.7754 108.51C94.0897 106.17 92.0293 104.428 90.0303 102.619C88.6121 101.335 88.0705 99.7376 89.5669 98.2523C91.0633 96.7615 92.6267 97.3366 93.9389 98.7381C95.7704 100.704 97.5907 102.686 99.6566 104.925C102.035 102.619 103.917 100.726 105.871 98.9168C107.837 97.0965 109.305 96.9457 110.5 98.3863C111.902 100.078 111.103 101.474 109.802 102.775C107.915 104.668 106.039 106.572 103.939 108.694C105.983 110.754 107.764 112.586 109.584 114.372C110.975 115.74 112.03 117.187 110.489 119.046C109.272 120.52 107.708 120.207 105.564 118.175C103.722 116.422 101.907 114.646 99.5282 112.346C97.5348 114.59 95.748 116.617 93.9501 118.622C92.6547 120.062 91.0856 120.615 89.5836 119.152C88.076 117.689 88.6065 116.092 89.9968 114.774C91.9455 112.915 93.9501 111.112 96.7754 108.51Z" fill="#003D7C"/>
</g>
</svg>
