<svg width="200" height="149" viewBox="0 0 200 149" fill="none" xmlns="http://www.w3.org/2000/svg">
<path d="M165.179 16.2774C161.938 13.2231 158.514 10.2281 155.391 6.92975C154.418 5.90065 153.522 3.76997 153.954 2.70129C154.385 1.61943 156.495 0.636493 157.887 0.616703C170.406 0.458382 182.932 0.484791 195.457 0.557355C199.012 0.577145 199.933 1.58641 199.946 5.30037C199.998 17.6429 200.037 29.9788 199.881 42.3147C199.861 43.8913 199.057 46.0353 197.881 46.8994C195.875 48.3771 194.275 46.4179 192.935 44.9996C189.929 41.8133 186.996 38.5479 184.179 35.4672C181.043 36.9977 179.939 38.7458 179.946 41.5692C180.017 67.1646 179.978 92.7533 179.991 118.349C179.991 119.233 180.181 120.11 180.351 121.621C184.807 121.621 189.119 121.614 193.438 121.621C199.41 121.634 199.953 122.168 199.979 128.079C199.985 129.603 200.044 131.133 199.933 132.65C199.338 140.784 193.811 146.913 185.839 148.186C184.062 148.469 182.232 148.489 180.429 148.489C126.714 148.502 72.9916 148.509 19.2761 148.476C17.0284 148.476 14.7285 148.337 12.5527 147.843C5.6855 146.273 0.673968 140.369 0.131651 133.317C-0.0512988 130.896 -0.0186802 128.442 0.0793288 126.007C0.210008 122.709 1.12481 121.779 4.54206 121.647C8.00504 121.515 11.4811 121.614 14.9506 121.607C16.4272 121.607 17.9039 121.607 20.0144 121.607C20.0144 119.536 20.0144 117.913 20.0144 116.297C20.0209 89.0262 20.0209 61.7618 20.0275 34.4909C20.0275 33.1188 19.9817 31.7467 20.0602 30.3812C20.3869 24.7344 23.9805 21.0468 29.5605 20.7566C32.4224 20.6048 35.2907 20.7037 38.1591 20.7037C77.9965 20.7037 117.827 20.684 157.665 20.7368C160.69 20.7433 163.421 20.5784 165.179 16.2774ZM159.815 60.3831C159.298 60.0599 158.782 59.7367 158.273 59.4134C157.312 60.779 156.521 62.316 155.371 63.4902C144.983 74.0912 134.535 84.6261 124.093 95.1743C122.604 96.685 121.147 98.2286 119.579 99.6535C117.239 101.778 116.037 101.811 113.77 99.6667C111.241 97.2787 108.856 94.7258 106.4 92.2652C103.218 89.079 100.022 85.9059 96.6248 82.5152C83.8183 95.4712 71.1948 107.932 58.3752 121.278C60.3093 121.456 61.1979 121.601 62.0865 121.607C69.6201 121.627 77.1602 121.66 84.6938 121.607C87.3466 121.588 89.4701 121.997 89.9602 125.229C90.2738 127.314 91.8094 128.363 93.8153 128.409C97.8794 128.501 101.963 128.626 106.014 128.349C107.269 128.264 109.333 127.103 109.51 126.159C110.353 121.502 113.58 121.581 117.03 121.594C129.543 121.64 142.055 121.64 154.568 121.627C156.306 121.627 158.037 121.436 159.821 121.33C159.815 100.669 159.815 80.523 159.815 60.3831ZM165.002 7.286C167.146 9.55527 168.616 11.1715 170.151 12.7283C174.202 16.8381 174.248 17.5109 170.243 21.5613C154.365 37.6112 138.475 53.6478 122.584 69.6845C121.519 70.7598 120.448 71.8284 119.369 72.8971C117.52 74.731 115.697 74.7377 113.868 72.8576C112.809 71.7691 111.686 70.7532 110.64 69.6582C106.158 64.9481 101.702 60.2183 96.9842 55.2377C95.037 57.1574 93.6454 58.4964 92.2863 59.8686C76.0821 76.2285 60.0086 92.7335 43.5758 108.856C39.7208 112.642 39.4071 116.449 40.263 121.225C45.0459 122.135 49.0578 121.97 52.5665 117.861C56.6894 113.032 61.4201 108.724 65.8958 104.205C74.8473 95.1612 83.7922 86.1105 92.7763 77.0927C96.1805 73.6756 97.0691 73.7086 100.539 77.1587C103.44 80.0414 106.302 82.9638 109.196 85.8531C111.62 88.2741 114.07 90.6688 117.416 93.9803C119.075 91.7968 120.278 89.8046 121.859 88.2016C141.01 68.7874 160.22 49.4194 179.416 30.0513C182.86 26.5749 183.748 26.5749 187.166 29.926C188.936 31.6676 190.674 33.4355 192.987 35.7443C192.987 25.5524 192.987 16.4027 192.987 7.27939C183.742 7.28599 174.928 7.286 165.002 7.286ZM40.0541 103.097C41.8182 101.448 42.8244 100.564 43.7653 99.6139C59.1266 84.1116 74.4944 68.6159 89.8295 53.0938C96.9711 45.8638 96.3177 45.844 103.401 53.0806C107.706 57.4806 112.065 61.8345 115.835 65.6276C124.309 57.2101 132.405 49.1621 140.507 41.1075C107.19 41.1075 73.7104 41.1075 40.0475 41.1075C40.0541 61.7091 40.0541 81.9017 40.0541 103.097ZM7.02498 128.316C5.83581 136.569 9.69086 141.497 17.0154 141.813C18.2176 141.866 19.4264 141.827 20.6352 141.827C61.7859 141.827 102.937 141.827 144.087 141.827C156.75 141.827 169.413 141.886 182.069 141.807C190.191 141.761 194.026 137.116 192.922 128.646C192.282 128.541 191.563 128.33 190.851 128.33C166.884 128.316 142.918 128.33 118.951 128.29C117.115 128.29 115.893 128.798 114.868 130.447C112.868 133.666 109.765 135.012 106.04 134.992C101.819 134.966 97.5983 134.992 93.3774 134.966C90.1693 134.946 87.2552 133.844 85.589 131.107C84.0601 128.607 82.1587 128.264 79.5713 128.27C57.1142 128.349 34.6504 128.316 12.1933 128.316C10.5467 128.316 8.90022 128.316 7.02498 128.316ZM154.718 27.2082C152.784 27.2082 151.595 27.2082 150.406 27.2082C111.339 27.2082 72.2729 27.2082 33.2065 27.2082C32.3048 27.2082 31.3965 27.195 30.4948 27.2477C27.9597 27.3797 26.6791 28.8112 26.5223 31.3113C26.457 32.3734 26.4634 33.4421 26.4634 34.5107C26.4634 61.7685 26.4634 89.0262 26.4634 116.29C26.4634 117.913 26.4634 119.536 26.4634 121.37C29.0051 121.37 30.9064 121.37 33.3959 121.37C33.3959 119.503 33.3959 117.867 33.3959 116.238C33.3959 99.0268 33.3959 81.8225 33.4024 64.6117C33.4024 56.2338 33.3763 47.8626 33.4351 39.4847C33.4612 34.9132 34.1343 34.3062 38.7407 34.1809C39.9495 34.1479 41.1518 34.1743 42.3606 34.1743C75.847 34.1743 109.333 34.0357 142.813 34.3128C148.276 34.3524 151.497 32.1689 154.718 27.2082ZM173.02 121.317C173.02 96.1506 173.02 71.5184 173.02 46.2266C169.001 49.4128 166.368 52.0383 166.466 57.3288C166.825 76.9212 166.61 96.5267 166.616 116.126C166.616 117.755 166.616 119.384 166.616 121.311C168.995 121.317 170.857 121.317 173.02 121.317Z" fill="#003D7C"/>
</svg>
