<svg width="707" height="328" viewBox="0 0 707 328" fill="none" xmlns="http://www.w3.org/2000/svg">
<path d="M7.66617 135.119H26.8316V94.8718H51.199V135.119H70.3644V36.8279H51.199V76.117H26.8316V36.8279H7.66617V135.119ZM116.541 137.036C141.867 137.036 148.164 118.829 148.164 86.1104C148.164 53.5292 141.867 35.1852 116.541 35.1852C91.0785 35.1852 84.6444 53.5292 84.6444 86.1104C84.6444 118.829 91.0785 137.036 116.541 137.036ZM116.541 118.281C104.631 118.281 104.084 106.508 104.084 86.1104C104.084 65.713 104.631 53.9399 116.541 53.9399C128.451 53.9399 128.725 65.713 128.725 86.1104C128.725 106.508 128.451 118.281 116.541 118.281ZM162.407 135.119H193.345C212.1 135.119 222.367 125.81 222.367 106.508C222.367 99.1155 219.081 87.0687 207.993 85.0153V82.2774C215.111 80.3608 219.629 70.915 219.629 62.7012C219.629 46.6844 209.909 36.8279 191.839 36.8279H162.407V135.119ZM181.572 76.8015V56.404H190.881C197.315 56.404 200.464 60.1002 200.464 66.8081C200.464 73.1053 197.315 76.8015 190.881 76.8015H181.572ZM181.572 115.543V95.0087H193.345C199.779 95.0087 202.928 98.4311 202.928 105.55C202.928 111.984 199.916 115.543 193.345 115.543H181.572ZM235.566 135.119H265.135C283.479 135.119 293.883 123.346 293.883 105.55C293.883 86.7949 282.384 76.117 265.135 76.117H255.005V36.8279H235.566V135.119ZM304.972 135.119H324.137V36.8279H304.972V135.119ZM255.005 115.954V95.5563H264.177C271.432 95.5563 274.17 99.8 274.17 105.687C274.17 111.71 271.432 115.954 264.177 115.954H255.005ZM377.087 28.4773C390.092 28.4773 400.222 23.1384 400.359 4.52053H385.848C385.711 11.3653 382.7 15.4722 377.087 15.4722C371.474 15.4722 369.01 11.5022 368.463 4.52053H353.952C354.089 23.1384 363.945 28.4773 377.087 28.4773ZM410.9 135.119V36.8279H396.937L360.796 90.2173H359.975V36.8279H340.81V135.119H353.13L390.913 79.8132H391.735V135.119H410.9ZM454.241 135.119H473.406V55.7196H509.547V36.8279H454.241V135.119ZM549.48 137.036C574.805 137.036 581.102 118.829 581.102 86.1104C581.102 53.5292 574.805 35.1852 549.48 35.1852C524.017 35.1852 517.583 53.5292 517.583 86.1104C517.583 118.829 524.017 137.036 549.48 137.036ZM549.48 118.281C537.57 118.281 537.022 106.508 537.022 86.1104C537.022 65.713 537.57 53.9399 549.48 53.9399C561.389 53.9399 561.663 65.713 561.663 86.1104C561.663 106.508 561.389 118.281 549.48 118.281ZM668.199 115.954V36.8279H606.459V77.3491C606.459 96.7883 604.269 106.782 598.109 115.954H589.484V151.547H606.185L608.649 135.119H659.712L662.176 151.547H678.877V115.954H668.199ZM649.034 116.228H618.095C623.297 107.603 625.625 95.6931 625.625 77.3491V55.3089H649.034V116.228ZM37.0988 301.036C55.7166 301.036 66.5314 289.263 68.311 266.264L49.2825 260.925C48.0504 274.752 45.3125 282.418 37.0988 282.418C25.1888 282.418 24.6412 270.645 24.6412 250.11C24.6412 229.576 25.8733 217.803 37.0988 217.803C45.4494 217.803 48.3242 225.332 49.2825 238.885L68.311 233.409C65.9838 211.095 55.8535 199.185 37.0988 199.185C12.3206 199.185 5.20204 217.529 5.20204 250.11C5.20204 282.829 11.6361 301.036 37.0988 301.036Z" fill="#003D7C"/>
<path d="M680 175.75H105.647V326.59H680V175.75Z" fill="#003D7C"/>
<path d="M568.153 297.359C563.43 297.359 558.899 295.508 555.548 292.253C552.198 288.967 550.315 284.531 550.315 279.872V222.146C550.315 217.519 552.198 213.052 555.548 209.765C558.899 206.479 563.43 204.66 568.153 204.66H632.835C637.558 204.66 642.089 206.51 645.44 209.765C648.79 213.052 650.673 217.488 650.673 222.146V279.872C650.673 284.499 648.79 288.967 645.44 292.253C642.121 295.54 637.59 297.359 632.835 297.359H568.153ZM617.454 223.774H583.502C581.491 223.774 579.832 225.401 579.832 227.38V274.607C579.832 276.617 581.491 278.181 583.502 278.181H617.454C619.497 278.181 621.124 276.585 621.124 274.607V227.38C621.124 225.401 619.528 223.774 617.454 223.774ZM224.352 239.569V297.327H253.837L253.869 204.66H214.013L194.835 250.738L175.689 204.692H135.833V297.327H165.318V239.601L185.262 297.327H204.44L224.352 239.569ZM342.356 204.692H265.612V297.327H342.324V278.213H295.129V259.992H342.324V240.878H295.129V223.806H342.324L342.356 204.692ZM379.244 297.327H408.729V223.774H436.779V204.692H351.227V223.806H379.244V297.327ZM517.416 259.992L540.008 297.327H506.183L487.165 259.992H475.103V297.327H445.586V204.692H520.671C530.499 204.692 538.413 212.478 538.413 222.115V242.569C538.413 252.206 530.499 259.992 520.671 259.992H517.416ZM508.226 223.774H475.103V240.846H508.226C510.268 240.846 511.895 239.218 511.895 237.208V227.38C511.895 225.401 510.236 223.774 508.226 223.774Z" fill="#FFE500"/>
</svg>
