<svg width="680" height="443" viewBox="0 0 680 443" fill="none" xmlns="http://www.w3.org/2000/svg">
<path d="M125.777 210.69H140.22V150.65H157.448V210.69H171.891V136.619H125.777V210.69ZM184.435 210.69H198.878V181.702H207.75C221.78 181.702 229.62 174.171 229.62 159.418C229.62 144.563 221.78 136.619 207.75 136.619H184.435V210.69ZM198.878 167.465V150.856H207.337C212.908 150.856 214.971 154.054 214.971 159.212C214.971 164.68 212.598 167.465 207.337 167.465H198.878ZM291.882 210.69V136.619H281.36L254.125 176.853H253.506V136.619H239.063V210.69H248.347L276.82 169.013H277.439V210.69H291.882ZM304.47 210.69H318.913V168.394L319.532 168.29L332.943 189.439L346.045 168.29L346.664 168.394V210.69H361.107V136.619H349.45L332.943 164.164L316.437 136.619H304.47V210.69ZM373.706 210.69H416.519V196.763H388.149V180.464H409.607V166.33H388.149V150.65H416.519V136.619H373.706V210.69ZM426.622 210.69H441.065V181.702H449.937C463.967 181.702 471.807 174.171 471.807 159.418C471.807 144.563 463.967 136.619 449.937 136.619H426.622V210.69ZM441.065 167.465V150.856H449.524C455.095 150.856 457.158 154.054 457.158 159.212C457.158 164.68 454.785 167.465 449.524 167.465H441.065ZM481.25 210.69H503.533C517.357 210.69 525.197 201.818 525.197 188.407C525.197 174.274 516.531 166.227 503.533 166.227H495.899V136.619H481.25V210.69ZM533.553 210.69H547.996V136.619H533.553V210.69ZM495.899 196.248V180.876H502.811C508.278 180.876 510.342 184.074 510.342 188.51C510.342 193.05 508.278 196.248 502.811 196.248H495.899Z" fill="#003D7C"/>
<path d="M123.95 294.106H133.824V279.083L138.056 273.088L148.636 294.106H160.132L144.757 264.131L158.863 243.465H147.366L134.106 262.931H133.824V243.465H123.95V294.106ZM188.941 294.106H199.239L185.062 243.465H175.117L161.081 294.106H171.238L173.636 284.655H186.473L188.941 294.106ZM176.246 274.569L179.984 259.828L183.863 274.569H176.246ZM204.364 294.106H214.238V279.083L218.47 273.088L229.05 294.106H240.547L225.171 264.131L239.277 243.465H227.781L214.521 262.931H214.238V243.465H204.364V294.106ZM271.397 242.618C261.734 242.618 256.515 248.755 255.316 260.251L265.12 263.073C265.614 256.09 267.095 252.211 271.397 252.211C276.475 252.211 277.604 256.936 277.816 265.259H267.447V272.242H277.816C277.674 280.705 276.828 285.502 271.397 285.502C267.165 285.502 265.755 281.552 265.12 274.428L255.316 277.179C256.233 289.028 261.805 295.094 271.397 295.094C284.516 295.094 287.831 285.713 287.831 268.856C287.831 252.07 284.163 242.618 271.397 242.618ZM302.272 294.106H312.146V253.128H322.373V243.465H292.045V253.128H302.272V294.106ZM343.094 295.094C356.142 295.094 359.386 285.713 359.386 268.856C359.386 252.07 356.142 242.618 343.094 242.618C329.975 242.618 326.66 252.07 326.66 268.856C326.66 285.713 329.975 295.094 343.094 295.094ZM343.094 285.431C336.957 285.431 336.675 279.365 336.675 268.856C336.675 258.347 336.957 252.281 343.094 252.281C349.23 252.281 349.371 258.347 349.371 268.856C349.371 279.365 349.23 285.431 343.094 285.431ZM395.683 263.707H390.463V253.339H408.167V243.465H380.448V294.106H395.683C405.134 294.106 410.494 288.041 410.494 278.872C410.494 269.209 404.57 263.707 395.683 263.707ZM395.189 284.232H390.463V273.723H395.189C398.927 273.723 400.338 275.909 400.338 278.942C400.338 282.046 398.927 284.232 395.189 284.232ZM416.901 294.106H432.136C441.587 294.106 446.948 288.041 446.948 278.872C446.948 269.209 441.023 263.707 432.136 263.707H426.917V243.465H416.901V294.106ZM452.661 294.106H462.535V243.465H452.661V294.106ZM426.917 284.232V273.723H431.642C435.38 273.723 436.791 275.909 436.791 278.942C436.791 282.046 435.38 284.232 431.642 284.232H426.917ZM468.586 295.094C482.41 295.094 487.982 290.862 488.053 277.814L488.123 253.128H501.101V294.106H510.975V243.465H478.108V277.814C478.108 283.174 476.062 285.219 468.586 285.219V295.094ZM534.727 295.094C547.776 295.094 551.02 285.713 551.02 268.856C551.02 252.07 547.776 242.618 534.727 242.618C521.608 242.618 518.294 252.07 518.294 268.856C518.294 285.713 521.608 295.094 534.727 295.094ZM534.727 285.431C528.591 285.431 528.309 279.365 528.309 268.856C528.309 258.347 528.591 252.281 534.727 252.281C540.864 252.281 541.005 258.347 541.005 268.856C541.005 279.365 540.864 285.431 534.727 285.431Z" fill="#003D7C"/>
<path d="M669.931 115.083L0 0L12.0886 328.178L679.519 442.358L669.931 115.083ZM664.5 427L15.5 320.5L17.1491 11.506L668.5 118L664.5 427Z" fill="#003D7C"/>
</svg>
