<svg width="680" height="661" viewBox="0 0 680 661" fill="none" xmlns="http://www.w3.org/2000/svg">
<path d="M127.201 236H145.203V161.162H166.678V236H184.68V143.674H127.201V236ZM227.962 237.8C251.751 237.8 257.666 220.698 257.666 189.965C257.666 159.361 251.751 142.131 227.962 142.131C204.044 142.131 198.001 159.361 198.001 189.965C198.001 220.698 204.044 237.8 227.962 237.8ZM227.962 220.184C216.775 220.184 216.26 209.125 216.26 189.965C216.26 170.806 216.775 159.747 227.962 159.747C239.149 159.747 239.406 170.806 239.406 189.965C239.406 209.125 239.149 220.184 227.962 220.184ZM307.049 143.674V180.964C307.049 187.394 305.891 193.18 297.405 193.18C288.918 193.18 287.889 187.522 287.889 180.964V143.674H269.63V180.964C269.63 201.41 280.945 210.282 296.119 210.282C299.848 210.282 303.577 209.511 307.049 208.096V236H325.051V143.674H307.049ZM340.768 236H394.132V218.641H358.77V198.324H385.517V180.707H358.77V161.162H394.132V143.674H340.768V236ZM406.725 236H424.727V183.279L425.499 183.15L442.215 209.511L458.546 183.15L459.317 183.279V236H477.32V143.674H462.789L442.215 178.007L421.641 143.674H406.725V236ZM510.127 237.8C525.686 237.8 530.829 228.285 533.658 219.798L559.376 143.674H539.959L526.843 188.165H526.586L512.056 143.674H492.253L517.328 210.925L515.656 215.297C514.242 218.641 512.956 221.341 509.355 221.341C505.755 221.341 504.34 217.355 503.183 213.754L486.081 218.769C489.424 231.114 497.525 237.8 510.127 237.8Z" fill="white"/>
<path d="M124.239 322.561H134.836V291.527L135.29 291.451L145.13 306.968L154.743 291.451L155.197 291.527V322.561H165.794V268.214H157.241L145.13 288.424L133.019 268.214H124.239V322.561ZM175.038 322.561H191.388C201.531 322.561 207.283 316.051 207.283 306.211C207.283 295.842 200.925 289.938 191.388 289.938H185.787V268.214H175.038V322.561ZM213.415 322.561H224.011V268.214H213.415V322.561ZM185.787 311.964V300.686H190.858C194.87 300.686 196.384 303.032 196.384 306.287C196.384 309.618 194.87 311.964 190.858 311.964H185.787ZM247.957 322.561H265.064C275.434 322.561 281.111 317.414 281.111 306.741C281.111 302.654 279.294 295.993 273.163 294.858V293.344C277.099 292.284 279.597 287.061 279.597 282.52C279.597 273.664 274.223 268.214 264.231 268.214H247.957V322.561ZM258.554 290.316V279.038H263.701C267.259 279.038 269 281.082 269 284.791C269 288.272 267.259 290.316 263.701 290.316H258.554ZM258.554 311.737V300.383H265.064C268.621 300.383 270.362 302.275 270.362 306.211C270.362 309.769 268.697 311.737 265.064 311.737H258.554ZM288.409 322.561H304.758C314.901 322.561 320.654 316.051 320.654 306.211C320.654 295.842 314.295 289.938 304.758 289.938H299.157V268.214H288.409V322.561ZM326.785 322.561H337.382V268.214H326.785V322.561ZM299.157 311.964V300.686H304.228C308.24 300.686 309.754 303.032 309.754 306.287C309.754 309.618 308.24 311.964 304.228 311.964H299.157ZM362.95 289.938H357.348V278.811H376.347V268.214H346.6V322.561H362.95C373.092 322.561 378.845 316.051 378.845 306.211C378.845 295.842 372.487 289.938 362.95 289.938ZM362.42 311.964H357.348V300.686H362.42C366.431 300.686 367.945 303.032 367.945 306.287C367.945 309.618 366.431 311.964 362.42 311.964ZM385.721 322.561H396.318V301.291H402.827C413.121 301.291 418.874 295.766 418.874 284.942C418.874 274.042 413.121 268.214 402.827 268.214H385.721V322.561ZM396.318 290.846V278.659H402.524C406.612 278.659 408.126 281.006 408.126 284.791C408.126 288.802 406.385 290.846 402.524 290.846H396.318ZM448.002 322.561H459.053L443.839 268.214H433.166L418.103 322.561H429.003L431.577 312.418H445.353L448.002 322.561ZM434.377 301.594L438.389 285.775L442.552 301.594H434.377ZM461.828 323.621C476.664 323.621 482.644 319.079 482.719 305.076L482.795 278.584H496.722V322.561H507.319V268.214H472.047V305.076C472.047 310.829 469.852 313.024 461.828 313.024V323.621ZM555.29 322.561V268.214H547.569L527.587 297.734H527.132V268.214H516.535V322.561H523.348L544.239 291.981H544.693V322.561H555.29Z" fill="white"/>
<path d="M167.385 405.78V345.882H158.876L136.852 378.417H136.351V345.882H124.672V405.78H132.18L155.205 372.077H155.706V405.78H167.385ZM177.565 405.78H189.244V371.576L189.745 371.493L200.59 388.595L211.185 371.493L211.685 371.576V405.78H223.365V345.882H213.938L200.59 368.156L187.242 345.882H177.565V405.78ZM233.554 405.78H268.175V394.518H245.233V381.337H262.585V369.908H245.233V357.227H268.175V345.882H233.554V405.78ZM276.345 405.78H288.024V381.253H302.874V405.78H314.553V345.882H302.874V369.824H288.024V345.882H276.345V405.78ZM324.757 405.78H336.436V381.253H351.286V405.78H362.965V345.882H351.286V369.824H336.436V345.882H324.757V405.78ZM391.105 406.948C406.539 406.948 410.376 395.853 410.376 375.914C410.376 356.059 406.539 344.88 391.105 344.88C375.588 344.88 371.667 356.059 371.667 375.914C371.667 395.853 375.588 406.948 391.105 406.948ZM391.105 395.519C383.847 395.519 383.514 388.345 383.514 375.914C383.514 363.484 383.847 356.31 391.105 356.31C398.363 356.31 398.53 363.484 398.53 375.914C398.53 388.345 398.363 395.519 391.105 395.519ZM451.722 344.88C440.293 344.88 434.12 352.138 432.702 365.737L444.298 369.074C444.882 360.814 446.633 356.226 451.722 356.226C457.729 356.226 459.064 361.816 459.314 371.66H447.051V379.919H459.314C459.147 389.93 458.146 395.602 451.722 395.602C446.717 395.602 445.048 390.931 444.298 382.505L432.702 385.758C433.786 399.774 440.377 406.948 451.722 406.948C467.239 406.948 471.16 395.853 471.16 375.914C471.16 356.059 466.822 344.88 451.722 344.88ZM488.241 405.78H499.92V357.311H512.017V345.882H476.144V357.311H488.241V405.78ZM536.525 406.948C551.958 406.948 555.796 395.853 555.796 375.914C555.796 356.059 551.958 344.88 536.525 344.88C521.008 344.88 517.087 356.059 517.087 375.914C517.087 395.853 521.008 406.948 536.525 406.948ZM536.525 395.519C529.267 395.519 528.933 388.345 528.933 375.914C528.933 363.484 529.267 356.31 536.525 356.31C543.783 356.31 543.949 363.484 543.949 375.914C543.949 388.345 543.783 395.519 536.525 395.519Z" fill="white"/>
<path d="M126.021 513.318H141.072V483.107H150.318C164.94 483.107 173.111 475.259 173.111 459.885C173.111 444.403 164.94 436.125 150.318 436.125H126.021V513.318ZM141.072 468.271V450.961H149.888C155.694 450.961 157.844 454.294 157.844 459.67C157.844 465.368 155.371 468.271 149.888 468.271H141.072ZM182.951 513.318H227.569V498.804H198.003V481.817H220.366V467.088H198.003V450.746H227.569V436.125H182.951V513.318ZM238.097 513.318H310.883V439.028H295.831V498.697H281.855V439.028H266.803V498.697H253.149V439.028H238.097V513.318ZM324.006 513.318H368.623V498.804H339.058V481.817H361.42V467.088H339.058V450.746H368.623V436.125H324.006V513.318ZM379.152 513.318H394.204V481.71H413.341V513.318H428.392V436.125H413.341V466.981H394.204V436.125H379.152V513.318ZM496.588 513.318V436.125H485.622L457.239 478.054H456.594V436.125H441.542V513.318H451.218L480.892 469.883H481.537V513.318H496.588ZM509.707 513.318H554.324V498.804H524.759V481.817H547.121V467.088H524.759V450.746H554.324V436.125H509.707V513.318Z" fill="white"/>
<path d="M669.931 115.083L0 0L12.0886 546.178L679.519 660.358L669.931 115.083ZM664.5 645L15.5 538.5L17.1491 11.506L668.5 118L664.5 645Z" fill="white"/>
</svg>
