<svg width="561" height="423" viewBox="0 0 561 423" fill="none" xmlns="http://www.w3.org/2000/svg">
<path d="M134.42 141.745C144.264 141.745 146.712 134.668 146.712 121.95C146.712 109.286 144.264 102.156 134.42 102.156C124.523 102.156 122.022 109.286 122.022 121.95C122.022 134.668 124.523 141.745 134.42 141.745ZM134.42 134.455C129.791 134.455 129.578 129.879 129.578 121.95C129.578 114.022 129.791 109.446 134.42 109.446C139.05 109.446 139.156 114.022 139.156 121.95C139.156 129.879 139.05 134.455 134.42 134.455ZM163.689 141.745C170.925 141.745 175.129 137.169 175.821 128.229L168.424 126.154C167.945 131.528 166.881 134.508 163.689 134.508C159.059 134.508 158.846 129.932 158.846 121.95C158.846 113.969 159.325 109.392 163.689 109.392C166.934 109.392 168.052 112.319 168.424 117.587L175.821 115.459C174.916 106.785 170.979 102.156 163.689 102.156C154.057 102.156 151.29 109.286 151.29 121.95C151.29 134.668 153.791 141.745 163.689 141.745ZM191.97 141.745C201.814 141.745 204.261 134.668 204.261 121.95C204.261 109.286 201.814 102.156 191.97 102.156C182.072 102.156 179.571 109.286 179.571 121.95C179.571 134.668 182.072 141.745 191.97 141.745ZM191.97 134.455C187.34 134.455 187.127 129.879 187.127 121.95C187.127 114.022 187.34 109.446 191.97 109.446C196.599 109.446 196.705 114.022 196.705 121.95C196.705 129.879 196.599 134.455 191.97 134.455ZM221.291 118.066H217.353V110.244H230.71V102.794H209.797V141H221.291C228.421 141 232.465 136.424 232.465 129.506C232.465 122.216 227.996 118.066 221.291 118.066ZM220.919 133.55H217.353V125.622H220.919C223.739 125.622 224.803 127.271 224.803 129.56C224.803 131.901 223.739 133.55 220.919 133.55ZM237.299 141H259.382V133.816H244.749V125.409H255.817V118.119H244.749V110.031H259.382V102.794H237.299V141ZM264.593 141H272.042V125.356H281.514V141H288.963V102.794H281.514V118.066H272.042V102.794H264.593V141ZM295.472 141H302.921V125.356H312.393V141H319.843V102.794H312.393V118.066H302.921V102.794H295.472V141ZM337.791 141.745C347.636 141.745 350.083 134.668 350.083 121.95C350.083 109.286 347.636 102.156 337.791 102.156C327.894 102.156 325.393 109.286 325.393 121.95C325.393 134.668 327.894 141.745 337.791 141.745ZM337.791 134.455C333.162 134.455 332.949 129.879 332.949 121.95C332.949 114.022 333.162 109.446 337.791 109.446C342.421 109.446 342.527 114.022 342.527 121.95C342.527 129.879 342.421 134.455 337.791 134.455ZM367.06 141.745C374.297 141.745 378.5 137.169 379.192 128.229L371.796 126.154C371.317 131.528 370.252 134.508 367.06 134.508C362.43 134.508 362.218 129.932 362.218 121.95C362.218 113.969 362.696 109.392 367.06 109.392C370.306 109.392 371.423 112.319 371.796 117.587L379.192 115.459C378.287 106.785 374.35 102.156 367.06 102.156C357.429 102.156 354.662 109.286 354.662 121.95C354.662 134.668 357.162 141.745 367.06 141.745ZM389.707 141H397.156V110.084H404.872V102.794H381.991V110.084H389.707V141ZM436.983 141V102.794H431.556L417.508 123.547H417.189V102.794H409.739V141H414.528L429.214 119.503H429.534V141H436.983Z" fill="#003D7C"/>
<path d="M151.334 155.861C134.367 155.861 125.202 166.636 123.096 186.824L140.312 191.778C141.179 179.517 143.779 172.705 151.334 172.705C160.252 172.705 162.233 181.003 162.605 195.617H144.399V207.879H162.605C162.357 222.741 160.871 231.163 151.334 231.163C143.903 231.163 141.426 224.227 140.312 211.718L123.096 216.548C124.706 237.355 134.491 248.006 151.334 248.006C174.371 248.006 180.192 231.534 180.192 201.934C180.192 172.457 173.751 155.861 151.334 155.861ZM205.549 246.272H222.888V174.315H240.847V157.347H187.591V174.315H205.549V246.272ZM277.231 248.006C300.143 248.006 305.84 231.534 305.84 201.934C305.84 172.457 300.143 155.861 277.231 155.861C254.194 155.861 248.373 172.457 248.373 201.934C248.373 231.534 254.194 248.006 277.231 248.006ZM277.231 231.039C266.456 231.039 265.96 220.388 265.96 201.934C265.96 183.48 266.456 172.829 277.231 172.829C288.006 172.829 288.253 183.48 288.253 201.934C288.253 220.388 288.006 231.039 277.231 231.039ZM318.726 246.272H336.065V174.439H368.761V157.347H318.726V246.272ZM404.889 248.006C427.802 248.006 433.499 231.534 433.499 201.934C433.499 172.457 427.802 155.861 404.889 155.861C381.853 155.861 376.032 172.457 376.032 201.934C376.032 231.534 381.853 248.006 404.889 248.006ZM404.889 231.039C394.114 231.039 393.619 220.388 393.619 201.934C393.619 183.48 394.114 172.829 404.889 172.829C415.664 172.829 415.912 183.48 415.912 201.934C415.912 220.388 415.664 231.039 404.889 231.039Z" fill="#003D7C"/>
<path d="M124.351 316.637H135.229V294.803H141.912C152.479 294.803 158.384 289.13 158.384 278.019C158.384 266.83 152.479 260.847 141.912 260.847H124.351V316.637ZM135.229 284.08V271.57H141.601C145.797 271.57 147.351 273.979 147.351 277.864C147.351 281.982 145.564 284.08 141.601 284.08H135.229ZM165.496 316.637H197.742V306.147H176.375V293.87H192.536V283.225H176.375V271.415H197.742V260.847H165.496V316.637ZM205.352 316.637H257.955V262.945H247.077V306.069H236.976V262.945H226.098V306.069H216.23V262.945H205.352V316.637ZM267.44 316.637H299.686V306.147H278.318V293.87H294.48V283.225H278.318V271.415H299.686V260.847H267.44V316.637ZM307.295 316.637H318.173V293.793H332.004V316.637H342.882V260.847H332.004V283.148H318.173V260.847H307.295V316.637ZM392.169 316.637V260.847H384.244L363.73 291.151H363.264V260.847H352.386V316.637H359.379L380.825 285.245H381.291V316.637H392.169ZM435.373 316.637V260.847H417.89C407.4 260.847 401.34 266.442 401.34 278.796C401.34 285.556 403.515 290.995 411.752 293.559V294.026C408.41 294.958 407.866 295.58 406.39 298.455L396.522 316.637H409.887L417.424 300.863C418.9 297.833 420.454 294.803 423.174 294.803H424.495V316.637H435.373ZM424.495 284.468H417.812C414.16 284.468 412.373 282.293 412.373 278.019C412.373 274.056 414.16 271.57 417.89 271.57H424.495V284.468Z" fill="#003D7C"/>
<path d="M550.5 95L0 0L12.0886 328.178L560.088 422.275L550.5 95ZM545.069 406.917L15.5 320.5L17.1491 11.506L549.069 97.9171L545.069 406.917Z" fill="#003D7C"/>
</svg>
