<svg width="560" height="449" viewBox="0 0 560 449" fill="none" xmlns="http://www.w3.org/2000/svg">
<path d="M142.888 186.384C157.285 186.384 163.006 175.679 163.006 166.081C163.006 160.359 161.068 151.961 154.239 150.761V149.469C160.422 147.992 162.084 140.056 162.084 135.257C162.084 125.013 154.516 117.629 142.795 117.629C130.429 117.629 123.784 125.751 122.307 136.918L134.951 140.609C135.874 133.411 138.365 129.904 142.795 129.904C146.394 129.904 148.979 132.303 148.979 137.933C148.979 142.732 147.225 145.593 140.765 145.593V156.667C147.687 156.667 149.809 159.252 149.809 164.604C149.809 170.511 147.963 174.11 143.257 174.11C137.443 174.11 135.874 168.204 135.412 161.282L122.492 164.973C123.692 177.155 129.783 186.384 142.888 186.384ZM203.088 185H216.562L198.012 118.737H184.999L166.634 185H179.923L183.061 172.633H199.858L203.088 185ZM186.476 159.436L191.367 140.148L196.443 159.436H186.476ZM273.104 172.08V118.737H231.482V146.054C231.482 159.159 230.005 165.896 225.852 172.08H220.038V196.075H231.297L232.958 185H267.382L269.043 196.075H280.302V172.08H273.104ZM260.183 172.264H239.326C242.833 166.45 244.402 158.421 244.402 146.054V131.196H260.183V172.264ZM320.745 185H334.219L315.669 118.737H302.656L284.291 185H297.58L300.718 172.633H317.514L320.745 185ZM304.133 159.436L309.024 140.148L314.1 159.436H304.133ZM362.53 118.737V145.501C362.53 150.115 361.699 154.268 355.608 154.268C349.517 154.268 348.779 150.207 348.779 145.501V118.737H335.674V145.501C335.674 160.174 343.795 166.542 354.685 166.542C357.361 166.542 360.038 165.989 362.53 164.973V185H375.45V118.737H362.53ZM433.982 185V118.737H424.568L400.204 154.729H399.65V118.737H386.73V185H395.036L420.508 147.715H421.061V185H433.982Z" fill="white"/>
<path d="M123.381 256.345H131.834V239.379H137.026C145.238 239.379 149.826 234.971 149.826 226.337C149.826 217.643 145.238 212.994 137.026 212.994H123.381V256.345ZM131.834 231.047V221.326H136.785C140.045 221.326 141.253 223.198 141.253 226.216C141.253 229.416 139.864 231.047 136.785 231.047H131.834ZM155.353 256.345H180.409V248.194H163.806V238.654H176.364V230.382H163.806V221.205H180.409V212.994H155.353V256.345ZM186.322 256.345H194.775V243.484L198.398 238.352L207.454 256.345H217.296L204.133 230.684L216.209 212.994H206.367L195.017 229.658H194.775V212.994H186.322V256.345ZM218.833 257.19C230.667 257.19 235.436 253.567 235.497 242.398L235.557 221.265H246.667V256.345H255.119V212.994H226.983V242.398C226.983 246.986 225.233 248.737 218.833 248.737V257.19ZM283.422 256.345H292.237L280.101 212.994H271.588L259.573 256.345H268.267L270.32 248.254H281.308L283.422 256.345ZM272.554 239.62L275.754 227.001L279.075 239.62H272.554ZM296.624 256.345H305.077V231.59L305.439 231.53L313.288 243.907L320.956 231.53L321.318 231.59V256.345H329.771V212.994H322.949L313.288 229.115L303.628 212.994H296.624V256.345ZM337.145 256.345H345.598V238.594H356.345V256.345H364.798V212.994H356.345V230.322H345.598V212.994H337.145V256.345ZM385.164 257.19C396.334 257.19 399.111 249.16 399.111 234.73C399.111 220.36 396.334 212.269 385.164 212.269C373.934 212.269 371.096 220.36 371.096 234.73C371.096 249.16 373.934 257.19 385.164 257.19ZM385.164 248.918C379.911 248.918 379.67 243.726 379.67 234.73C379.67 225.733 379.911 220.541 385.164 220.541C390.417 220.541 390.538 225.733 390.538 234.73C390.538 243.726 390.417 248.918 385.164 248.918ZM421.393 209.311C427.129 209.311 431.597 206.956 431.657 198.745H425.257C425.197 201.764 423.868 203.575 421.393 203.575C418.917 203.575 417.831 201.824 417.589 198.745H411.189C411.25 206.956 415.597 209.311 421.393 209.311ZM436.306 256.345V212.994H430.148L414.208 236.541H413.846V212.994H405.393V256.345H410.827L427.491 231.952H427.853V256.345H436.306Z" fill="white"/>
<path d="M123.743 326.798H133.101V312.561L137.111 306.879L147.137 326.798H158.032L143.461 298.39L156.829 278.806H145.934L133.368 297.254H133.101V278.806H123.743V326.798ZM185.334 326.798H195.092L181.657 278.806H172.233L158.932 326.798H168.557L170.829 317.841H182.994L185.334 326.798ZM173.302 308.283L176.845 294.313L180.521 308.283H173.302ZM199.949 326.798H209.307V299.393L209.708 299.326L218.397 313.028L226.886 299.326L227.287 299.393V326.798H236.645V278.806H229.092L218.397 296.652L207.703 278.806H199.949V326.798ZM244.808 326.798H254.166V287.896H265.328V326.798H274.686V278.806H244.808V326.798ZM306.007 326.798H315.766L302.331 278.806H292.907L279.605 326.798H289.23L291.503 317.841H303.668L306.007 326.798ZM293.976 308.283L297.519 294.313L301.195 308.283H293.976ZM320.623 326.798H329.981V307.146H341.878V326.798H351.236V278.806H341.878V297.989H329.981V278.806H320.623V326.798ZM393.634 326.798V278.806H386.816L369.17 304.874H368.769V278.806H359.411V326.798H365.427L383.875 299.794H384.276V326.798H393.634ZM436.013 326.798V278.806H429.195L411.549 304.874H411.148V278.806H401.79V326.798H407.806L426.254 299.794H426.655V326.798H436.013Z" fill="white"/>
<path d="M11.6198 94.6239L560 0L545.349 355.084L0 448.614L11.6198 94.6239ZM18.2025 430L542.277 353.009L539.216 13.9449L12.8726 95.1285L18.2025 430Z" fill="white"/>
</svg>
