<svg width="800" height="586" viewBox="0 0 800 586" fill="none" xmlns="http://www.w3.org/2000/svg">
<path d="M123.738 211H133.083V196.782L137.088 191.108L147.101 211H157.981L143.43 182.631L156.78 163.073H145.899L133.35 181.496H133.083V163.073H123.738V211ZM185.246 211H194.992L181.575 163.073H172.163L158.879 211H168.491L170.761 202.055H182.91L185.246 211ZM173.231 192.51L176.769 178.559L180.44 192.51H173.231ZM199.842 211H209.187V196.782L213.192 191.108L223.205 211H234.085L219.534 182.631L232.884 163.073H222.003L209.454 181.496H209.187V163.073H199.842V211ZM263.282 162.272C254.137 162.272 249.198 168.079 248.063 178.96L257.341 181.63C257.808 175.021 259.21 171.35 263.282 171.35C268.088 171.35 269.156 175.822 269.356 183.699H259.544V190.307H269.356C269.223 198.317 268.422 202.856 263.282 202.856C259.277 202.856 257.942 199.118 257.341 192.376L248.063 194.98C248.931 206.194 254.204 211.935 263.282 211.935C275.698 211.935 278.835 203.057 278.835 187.103C278.835 171.216 275.364 162.272 263.282 162.272ZM292.502 211H301.847V172.218H311.526V163.073H282.823V172.218H292.502V211ZM331.135 211.935C343.484 211.935 346.555 203.057 346.555 187.103C346.555 171.216 343.484 162.272 331.135 162.272C318.72 162.272 315.582 171.216 315.582 187.103C315.582 203.057 318.72 211.935 331.135 211.935ZM331.135 202.79C325.328 202.79 325.061 197.049 325.061 187.103C325.061 177.157 325.328 171.417 331.135 171.417C336.943 171.417 337.076 177.157 337.076 187.103C337.076 197.049 336.943 202.79 331.135 202.79ZM366.487 211H375.832V172.151H386.98V211H396.325V163.073H366.487V211ZM418.793 211.935C431.142 211.935 434.212 203.057 434.212 187.103C434.212 171.216 431.142 162.272 418.793 162.272C406.377 162.272 403.24 171.216 403.24 187.103C403.24 203.057 406.377 211.935 418.793 211.935ZM418.793 202.79C412.986 202.79 412.719 197.049 412.719 187.103C412.719 177.157 412.986 171.417 418.793 171.417C424.6 171.417 424.734 177.157 424.734 187.103C424.734 197.049 424.6 202.79 418.793 202.79ZM441.157 211H456.243C465.388 211 470.394 206.461 470.394 197.049C470.394 193.444 468.792 187.57 463.385 186.569V185.234C466.856 184.3 469.059 179.694 469.059 175.689C469.059 167.879 464.32 163.073 455.509 163.073H441.157V211ZM450.502 182.564V172.618H455.041C458.179 172.618 459.714 174.42 459.714 177.691C459.714 180.762 458.179 182.564 455.041 182.564H450.502ZM450.502 201.455V191.442H456.243C459.38 191.442 460.915 193.111 460.915 196.582C460.915 199.719 459.447 201.455 456.243 201.455H450.502ZM473.84 211.935C486.923 211.935 492.197 207.929 492.263 195.581L492.33 172.218H504.612V211H513.957V163.073H482.851V195.581C482.851 200.654 480.916 202.589 473.84 202.589V211.935ZM556.261 211V163.073H549.453L531.83 189.106H531.43V163.073H522.085V211H528.092L546.516 184.033H546.916V211H556.261ZM593.376 211V163.073H578.357C569.346 163.073 564.14 167.879 564.14 178.492C564.14 184.3 566.009 188.972 573.084 191.175V191.575C570.214 192.376 569.747 192.91 568.478 195.38L560.001 211H571.482L577.957 197.45C579.225 194.846 580.56 192.243 582.897 192.243H584.031V211H593.376ZM584.031 183.365H578.291C575.153 183.365 573.618 181.496 573.618 177.825C573.618 174.42 575.153 172.284 578.357 172.284H584.031V183.365ZM599.11 211.935C612.193 211.935 617.467 207.929 617.533 195.581L617.6 172.218H629.882V211H639.228V163.073H608.122V195.581C608.122 200.654 606.186 202.589 599.11 202.589V211.935ZM661.706 211.935C674.055 211.935 677.126 203.057 677.126 187.103C677.126 171.216 674.055 162.272 661.706 162.272C649.291 162.272 646.153 171.216 646.153 187.103C646.153 203.057 649.291 211.935 661.706 211.935ZM661.706 202.79C655.899 202.79 655.632 197.049 655.632 187.103C655.632 177.157 655.899 171.417 661.706 171.417C667.514 171.417 667.647 177.157 667.647 187.103C667.647 197.049 667.514 202.79 661.706 202.79Z" fill="#003D7C"/>
<path d="M124.206 370H134.72V339.207L135.171 339.132L144.935 354.529L154.473 339.132L154.924 339.207V370H165.438V316.075H156.951L144.935 336.128L132.918 316.075H124.206V370ZM200.672 370H211.637L196.541 316.075H185.952L171.006 370H181.821L184.374 359.936H198.043L200.672 370ZM187.153 349.196L191.134 333.499L195.264 349.196H187.153ZM217.095 370H227.609V348.896H234.068C244.282 348.896 249.99 343.413 249.99 332.673C249.99 321.858 244.282 316.075 234.068 316.075H217.095V370ZM227.609 338.531V326.44H233.768C237.823 326.44 239.325 328.768 239.325 332.523C239.325 336.503 237.598 338.531 233.768 338.531H227.609ZM256.865 370H267.379V354.003L271.886 347.619L283.151 370H295.393L279.02 338.081L294.041 316.075H281.799L267.68 336.804H267.379V316.075H256.865V370ZM300.009 370H331.177V359.861H310.523V347.994H326.145V337.705H310.523V326.289H331.177V316.075H300.009V370ZM347.094 370H357.608V326.364H368.498V316.075H336.204V326.364H347.094V370ZM413.822 370V316.075H406.161L386.333 345.366H385.883V316.075H375.368V370H382.128L402.856 339.658H403.307V370H413.822ZM422.986 370H433.501V347.919H446.869V370H457.384V316.075H446.869V337.63H433.501V316.075H422.986V370ZM466.57 370H477.085V326.44H496.912V316.075H466.57V370ZM518.82 371.051C532.715 371.051 536.169 361.063 536.169 343.113C536.169 325.238 532.715 315.174 518.82 315.174C504.851 315.174 501.321 325.238 501.321 343.113C501.321 361.063 504.851 371.051 518.82 371.051ZM518.82 360.762C512.286 360.762 511.986 354.303 511.986 343.113C511.986 331.922 512.286 325.463 518.82 325.463C525.354 325.463 525.505 331.922 525.505 343.113C525.505 354.303 525.354 360.762 518.82 360.762ZM543.983 370H560.957C571.246 370 576.879 364.893 576.879 354.303C576.879 350.248 575.076 343.638 568.993 342.512V341.01C572.898 339.958 575.377 334.776 575.377 330.27C575.377 321.483 570.044 316.075 560.131 316.075H543.983V370ZM554.498 338.006V326.815H559.605C563.135 326.815 564.862 328.843 564.862 332.523C564.862 335.978 563.135 338.006 559.605 338.006H554.498ZM554.498 359.26V347.994H560.957C564.487 347.994 566.214 349.872 566.214 353.777C566.214 357.307 564.562 359.26 560.957 359.26H554.498ZM584.12 370H600.342C610.406 370 616.114 363.541 616.114 353.777C616.114 343.488 609.806 337.63 600.342 337.63H594.785V316.075H584.12V370ZM622.198 370H632.712V316.075H622.198V370ZM594.785 359.485V348.295H599.817C603.797 348.295 605.299 350.623 605.299 353.853C605.299 357.157 603.797 359.485 599.817 359.485H594.785ZM637.428 370H648.994L657.631 353.026H658.382L667.169 370H679.036L663.94 342.512L677.158 316.075H665.442L658.532 331.697H657.781L650.947 316.075H639.306L652.224 342.211L637.428 370Z" fill="#003D7C"/>
<path d="M147.513 429V394.221H142.572L129.785 413.112H129.494V394.221H122.713V429H127.072L140.441 409.431H140.732V429H147.513ZM173.311 408.123H169.727V401.002H181.885V394.221H162.848V429H173.311C179.802 429 183.483 424.834 183.483 418.537C183.483 411.901 179.414 408.123 173.311 408.123ZM172.972 422.219H169.727V415.001H172.972C175.539 415.001 176.508 416.503 176.508 418.586C176.508 420.717 175.539 422.219 172.972 422.219ZM212.684 429V394.221H207.743L194.955 413.112H194.665V394.221H187.883V429H192.243L205.612 409.431H205.902V429H212.684ZM227.895 429.727C235.451 429.727 238.454 424.108 238.454 419.07C238.454 416.067 237.437 411.659 233.853 411.029V410.351C237.098 409.576 237.97 405.41 237.97 402.892C237.97 397.515 233.998 393.64 227.846 393.64C221.356 393.64 217.868 397.902 217.093 403.763L223.729 405.701C224.213 401.923 225.521 400.082 227.846 400.082C229.735 400.082 231.092 401.342 231.092 404.296C231.092 406.815 230.171 408.317 226.781 408.317V414.129C230.414 414.129 231.528 415.486 231.528 418.295C231.528 421.395 230.559 423.284 228.088 423.284C225.037 423.284 224.213 420.184 223.971 416.551L217.19 418.489C217.819 424.883 221.016 429.727 227.895 429.727ZM243.204 429H249.985V414.759H258.607V429H265.388V394.221H258.607V408.123H249.985V394.221H243.204V429ZM271.313 429H291.415V422.461H278.095V414.807H288.17V408.171H278.095V400.809H291.415V394.221H271.313V429ZM306.1 429.678C312.688 429.678 316.514 425.512 317.144 417.375L310.411 415.486C309.975 420.378 309.006 423.09 306.1 423.09C301.886 423.09 301.692 418.925 301.692 411.659C301.692 404.393 302.128 400.227 306.1 400.227C309.055 400.227 310.072 402.892 310.411 407.687L317.144 405.749C316.321 397.854 312.736 393.64 306.1 393.64C297.333 393.64 294.814 400.131 294.814 411.659C294.814 423.236 297.09 429.678 306.1 429.678ZM321.091 418.44H337.657V411.95H321.091V418.44ZM352.548 429.727C360.105 429.727 363.108 424.108 363.108 419.07C363.108 416.067 362.091 411.659 358.506 411.029V410.351C361.752 409.576 362.624 405.41 362.624 402.892C362.624 397.515 358.652 393.64 352.5 393.64C346.009 393.64 342.522 397.902 341.747 403.763L348.383 405.701C348.867 401.923 350.175 400.082 352.5 400.082C354.389 400.082 355.745 401.342 355.745 404.296C355.745 406.815 354.825 408.317 351.434 408.317V414.129C355.067 414.129 356.181 415.486 356.181 418.295C356.181 421.395 355.213 423.284 352.742 423.284C349.691 423.284 348.867 420.184 348.625 416.551L341.844 418.489C342.473 424.883 345.67 429.727 352.548 429.727ZM384.145 429H391.217L381.481 394.221H374.651L365.012 429H371.987L373.634 422.509H382.45L384.145 429ZM375.426 415.583L377.993 405.459L380.658 415.583H375.426ZM420.894 422.219V394.221H399.048V408.559C399.048 415.437 398.273 418.973 396.093 422.219H393.042V434.813H398.951L399.823 429H417.891L418.762 434.813H424.672V422.219H420.894ZM414.112 422.315H403.165C405.006 419.264 405.829 415.05 405.829 408.559V400.76H414.112V422.315ZM445.899 429H452.971L443.235 394.221H436.405L426.765 429H433.741L435.388 422.509H444.203L445.899 429ZM437.18 415.583L439.747 405.459L442.411 415.583H437.18ZM467.83 394.221V408.268C467.83 410.69 467.394 412.87 464.197 412.87C461 412.87 460.613 410.739 460.613 408.268V394.221H453.734V408.268C453.734 415.97 457.997 419.312 463.713 419.312C465.117 419.312 466.522 419.022 467.83 418.489V429H474.611V394.221H467.83ZM489.957 429H496.738V418.683L499.644 414.565L506.91 429H514.806L504.246 408.414L513.934 394.221H506.038L496.932 407.59H496.738V394.221H489.957V429ZM516.039 429.678C525.533 429.678 529.359 426.772 529.408 417.811L529.456 400.857H538.369V429H545.15V394.221H522.578V417.811C522.578 421.492 521.173 422.897 516.039 422.897V429.678ZM575.849 429V394.221H570.908L558.12 413.112H557.829V394.221H551.048V429H555.407L568.776 409.431H569.067V429H575.849ZM581.759 429H601.861V422.461H588.541V414.807H598.616V408.171H588.541V400.809H601.861V394.221H581.759V429ZM606.605 429H613.386V414.759H622.008V429H628.79V394.221H622.008V408.123H613.386V394.221H606.605V429ZM640.236 429H647.018V400.857H654.041V394.221H633.213V400.857H640.236V429ZM672.395 429H679.467L669.73 394.221H662.901L653.261 429H660.237L661.883 422.509H670.699L672.395 429ZM663.676 415.583L666.243 405.459L668.907 415.583H663.676Z" fill="#003D7C"/>
<path d="M124.332 292H135.163V269.255H148.934V292H159.765V236.453H148.934V258.656H135.163V236.453H124.332V292ZM196.073 292H207.368L191.818 236.453H180.909L165.514 292H176.654L179.285 281.633H193.365L196.073 292ZM182.147 270.57L186.247 254.401L190.503 270.57H182.147ZM226.607 292H244.091C254.69 292 260.492 286.739 260.492 275.831C260.492 271.653 258.635 264.845 252.369 263.685V262.138C256.392 261.055 258.945 255.716 258.945 251.075C258.945 242.023 253.452 236.453 243.24 236.453H226.607V292ZM237.437 259.043V247.516H242.698C246.334 247.516 248.114 249.605 248.114 253.396C248.114 256.954 246.334 259.043 242.698 259.043H237.437ZM237.437 280.937V269.332H244.091C247.727 269.332 249.506 271.267 249.506 275.289C249.506 278.926 247.804 280.937 244.091 280.937H237.437ZM267.951 292H284.661C295.028 292 300.908 285.347 300.908 275.289C300.908 264.691 294.409 258.656 284.661 258.656H278.936V236.453H267.951V292ZM307.174 292H318.005V236.453H307.174V292ZM278.936 281.169V269.642H284.12C288.22 269.642 289.767 272.04 289.767 275.367C289.767 278.771 288.22 281.169 284.12 281.169H278.936ZM327.427 292H338.258V246.974H351.178V292H362.009V236.453H327.427V292ZM388.049 293.083C402.361 293.083 405.92 282.794 405.92 264.304C405.92 245.891 402.361 235.525 388.049 235.525C373.659 235.525 370.023 245.891 370.023 264.304C370.023 282.794 373.659 293.083 388.049 293.083ZM388.049 282.484C381.318 282.484 381.009 275.831 381.009 264.304C381.009 252.777 381.318 246.123 388.049 246.123C394.78 246.123 394.934 252.777 394.934 264.304C394.934 275.831 394.78 282.484 388.049 282.484ZM409.899 293.083C425.063 293.083 431.174 288.441 431.252 274.129L431.329 247.052H445.564V292H456.395V236.453H420.343V274.129C420.343 280.009 418.1 282.252 409.899 282.252V293.083ZM465.815 292H476.645V269.255H490.416V292H501.247V236.453H490.416V258.656H476.645V236.453H465.815V292ZM510.71 292H542.816V281.556H521.541V269.332H537.632V258.734H521.541V246.974H542.816V236.453H510.71V292ZM550.392 292H561.223V269.255H574.993V292H585.824V236.453H574.993V258.656H561.223V236.453H550.392V292ZM634.897 292V236.453H627.006L606.582 266.625H606.118V236.453H595.287V292H602.25L623.602 260.745H624.066V292H634.897ZM644.337 292H676.443V281.556H655.168V269.332H671.26V258.734H655.168V246.974H676.443V236.453H644.337V292Z" fill="#003D7C"/>
<path d="M54.5 122L800 0L739.572 464.075L-0.00012207 585.07L54.5 122ZM18.2024 566.456L734.5 454L779.216 13.9449L58.5 124L18.2024 566.456Z" fill="#003D7C"/>
</svg>
